<mxfile host="65bd71144e">
    <diagram id="BqvzW44J-VblSpAqGu-9" name="Strona-1">
        <mxGraphModel dx="1262" dy="705" grid="1" gridSize="10" guides="1" tooltips="1" connect="1" arrows="1" fold="1" page="1" pageScale="1" pageWidth="827" pageHeight="1169" math="0" shadow="0">
            <root>
                <mxCell id="0"/>
                <mxCell id="1" parent="0"/>
                <mxCell id="4" style="edgeStyle=none;html=1;exitX=0.5;exitY=1;exitDx=0;exitDy=0;entryX=0.5;entryY=0;entryDx=0;entryDy=0;" edge="1" parent="1" source="2" target="3">
                    <mxGeometry relative="1" as="geometry"/>
                </mxCell>
                <mxCell id="2" value="Start" style="rounded=1;whiteSpace=wrap;html=1;" vertex="1" parent="1">
                    <mxGeometry x="300" y="30" width="120" height="60" as="geometry"/>
                </mxCell>
                <mxCell id="5" style="edgeStyle=none;html=1;exitX=0.5;exitY=1;exitDx=0;exitDy=0;" edge="1" parent="1" source="3" target="6">
                    <mxGeometry relative="1" as="geometry">
                        <mxPoint x="360" y="280" as="targetPoint"/>
                    </mxGeometry>
                </mxCell>
                <mxCell id="3" value="Generate word" style="rounded=1;whiteSpace=wrap;html=1;" vertex="1" parent="1">
                    <mxGeometry x="300" y="120" width="120" height="60" as="geometry"/>
                </mxCell>
                <mxCell id="8" style="edgeStyle=none;html=1;exitX=0.5;exitY=1;exitDx=0;exitDy=0;entryX=0.5;entryY=0;entryDx=0;entryDy=0;" edge="1" parent="1" source="6" target="7">
                    <mxGeometry relative="1" as="geometry"/>
                </mxCell>
                <mxCell id="6" value="Generate as many blanks as letters in word" style="rounded=1;whiteSpace=wrap;html=1;" vertex="1" parent="1">
                    <mxGeometry x="300" y="210" width="120" height="60" as="geometry"/>
                </mxCell>
                <mxCell id="12" style="edgeStyle=none;html=1;" edge="1" parent="1" source="7" target="11">
                    <mxGeometry relative="1" as="geometry"/>
                </mxCell>
                <mxCell id="7" value="Ask the user to guess a letter" style="rounded=1;whiteSpace=wrap;html=1;" vertex="1" parent="1">
                    <mxGeometry x="300" y="300" width="120" height="60" as="geometry"/>
                </mxCell>
                <mxCell id="9" value="MOUSE" style="text;strokeColor=none;fillColor=none;html=1;fontSize=24;fontStyle=1;verticalAlign=middle;align=center;" vertex="1" parent="1">
                    <mxGeometry x="550" y="120" width="100" height="40" as="geometry"/>
                </mxCell>
                <mxCell id="10" value="_ O _ _ _" style="text;strokeColor=none;fillColor=none;html=1;fontSize=24;fontStyle=1;verticalAlign=middle;align=center;" vertex="1" parent="1">
                    <mxGeometry x="550" y="220" width="100" height="40" as="geometry"/>
                </mxCell>
                <mxCell id="15" style="edgeStyle=none;html=1;" edge="1" parent="1" source="11" target="13">
                    <mxGeometry relative="1" as="geometry">
                        <Array as="points">
                            <mxPoint x="180" y="440"/>
                        </Array>
                    </mxGeometry>
                </mxCell>
                <mxCell id="17" value="TAK" style="edgeLabel;html=1;align=center;verticalAlign=middle;resizable=0;points=[];" vertex="1" connectable="0" parent="15">
                    <mxGeometry x="-0.2489" y="2" relative="1" as="geometry">
                        <mxPoint as="offset"/>
                    </mxGeometry>
                </mxCell>
                <mxCell id="16" style="edgeStyle=none;html=1;exitX=1;exitY=0.5;exitDx=0;exitDy=0;" edge="1" parent="1" source="11" target="14">
                    <mxGeometry relative="1" as="geometry">
                        <Array as="points">
                            <mxPoint x="560" y="440"/>
                        </Array>
                    </mxGeometry>
                </mxCell>
                <mxCell id="18" value="NIE" style="edgeLabel;html=1;align=center;verticalAlign=middle;resizable=0;points=[];" vertex="1" connectable="0" parent="16">
                    <mxGeometry x="-0.1114" y="1" relative="1" as="geometry">
                        <mxPoint as="offset"/>
                    </mxGeometry>
                </mxCell>
                <mxCell id="11" value="Is the guessed letter in the word?" style="rhombus;whiteSpace=wrap;html=1;" vertex="1" parent="1">
                    <mxGeometry x="285" y="400" width="150" height="80" as="geometry"/>
                </mxCell>
                <mxCell id="21" style="edgeStyle=none;html=1;" edge="1" parent="1" source="13" target="19">
                    <mxGeometry relative="1" as="geometry"/>
                </mxCell>
                <mxCell id="13" value="replace the blank with letter" style="rounded=1;whiteSpace=wrap;html=1;" vertex="1" parent="1">
                    <mxGeometry x="120" y="520" width="120" height="60" as="geometry"/>
                </mxCell>
                <mxCell id="26" style="edgeStyle=none;html=1;exitX=0.5;exitY=1;exitDx=0;exitDy=0;" edge="1" parent="1" source="14" target="20">
                    <mxGeometry relative="1" as="geometry"/>
                </mxCell>
                <mxCell id="14" value="Lose a life" style="rounded=1;whiteSpace=wrap;html=1;" vertex="1" parent="1">
                    <mxGeometry x="500" y="520" width="120" height="60" as="geometry"/>
                </mxCell>
                <mxCell id="22" style="edgeStyle=none;html=1;entryX=0;entryY=0.5;entryDx=0;entryDy=0;" edge="1" parent="1" source="19" target="7">
                    <mxGeometry relative="1" as="geometry">
                        <Array as="points">
                            <mxPoint x="40" y="670"/>
                            <mxPoint x="40" y="330"/>
                        </Array>
                    </mxGeometry>
                </mxCell>
                <mxCell id="23" value="NO" style="edgeLabel;html=1;align=center;verticalAlign=middle;resizable=0;points=[];" vertex="1" connectable="0" parent="22">
                    <mxGeometry x="-0.7914" relative="1" as="geometry">
                        <mxPoint as="offset"/>
                    </mxGeometry>
                </mxCell>
                <mxCell id="24" style="edgeStyle=none;html=1;exitX=0.5;exitY=1;exitDx=0;exitDy=0;" edge="1" parent="1" source="19" target="28">
                    <mxGeometry relative="1" as="geometry">
                        <mxPoint x="180" y="810" as="targetPoint"/>
                        <Array as="points">
                            <mxPoint x="180" y="770"/>
                            <mxPoint x="345" y="770"/>
                        </Array>
                    </mxGeometry>
                </mxCell>
                <mxCell id="25" value="YES" style="edgeLabel;html=1;align=center;verticalAlign=middle;resizable=0;points=[];" vertex="1" connectable="0" parent="24">
                    <mxGeometry x="-0.26" relative="1" as="geometry">
                        <mxPoint as="offset"/>
                    </mxGeometry>
                </mxCell>
                <mxCell id="19" value="Are all the blanks filled?" style="rhombus;whiteSpace=wrap;html=1;" vertex="1" parent="1">
                    <mxGeometry x="110" y="630" width="140" height="80" as="geometry"/>
                </mxCell>
                <mxCell id="27" value="YES" style="edgeStyle=none;html=1;exitX=0.5;exitY=1;exitDx=0;exitDy=0;entryX=0.5;entryY=0;entryDx=0;entryDy=0;" edge="1" parent="1" source="20" target="28">
                    <mxGeometry relative="1" as="geometry">
                        <mxPoint x="350" y="840" as="targetPoint"/>
                        <Array as="points">
                            <mxPoint x="560" y="770"/>
                            <mxPoint x="345" y="770"/>
                        </Array>
                    </mxGeometry>
                </mxCell>
                <mxCell id="20" value="Have they run out of lives?" style="rhombus;whiteSpace=wrap;html=1;" vertex="1" parent="1">
                    <mxGeometry x="470" y="630" width="180" height="80" as="geometry"/>
                </mxCell>
                <mxCell id="28" value="GAME OVER" style="rounded=1;whiteSpace=wrap;html=1;" vertex="1" parent="1">
                    <mxGeometry x="285" y="850" width="120" height="60" as="geometry"/>
                </mxCell>
                <mxCell id="29" value="Z" style="text;strokeColor=none;fillColor=none;html=1;fontSize=24;fontStyle=1;verticalAlign=middle;align=center;" vertex="1" parent="1">
                    <mxGeometry x="670" y="460" width="100" height="40" as="geometry"/>
                </mxCell>
                <mxCell id="30" value="start to draw a hangman figure" style="rounded=1;whiteSpace=wrap;html=1;" vertex="1" parent="1">
                    <mxGeometry x="680" y="520" width="120" height="60" as="geometry"/>
                </mxCell>
                <mxCell id="31" value="as many as a drawing has - ca. 10" style="rounded=1;whiteSpace=wrap;html=1;" vertex="1" parent="1">
                    <mxGeometry x="680" y="640" width="120" height="60" as="geometry"/>
                </mxCell>
                <mxCell id="32" value="" style="shape=image;verticalLabelPosition=bottom;labelBackgroundColor=default;verticalAlign=top;aspect=fixed;imageAspect=0;image=data:image/png,iVBORw0KGgoAAAANSUhEUgAAASIAAAE+CAYAAAApqh1WAAAKqGlDQ1BJQ0MgUHJvZmlsZQAASImVlwdQk9kWgO//pzdaQgSkhN6ktwBSQg+9N1EJSYBQYgwEFbuyuAIriog0RcBVEQVXpchaEFFsi2DFuiCLiLIuFmyovB8Ygrtv3nvzzj9nzjcn5557zp17Z04AoMhxRKI0WA6AdGGmONTbjREdE8vADQMSkAHyAANoHG6GiBUc7A8QmbV/l/d3ATRlb5lM5fr33/+ryPP4GVwAoGCEE3gZ3HSETyI6yhWJMwFA7UP82isyRVPciTBNjBSIcN8UJ83w6BQnTDMaTMeEh7ojTAMAT+ZwxEkAkBmIn5HFTULykF0RNhfyBEKERQg7p6cv4yF8DGEDJAbxkafyMxO+y5P0t5wJ0pwcTpKUZ3qZFryHIEOUxln1fx7H/5b0NMnsHnqIkpPFPqFTPSNn1pe6zE/KwoTAoFkW8KbjpzlZ4hMxy9wM99hZ5nE8/KRr0wL9ZzlR4MWW5slkh88yP8MzbJbFy0KleyWK3VmzzBHP7StJjZD6k/lsaf7s5PCoWc4SRAbOckZqmN9cjLvUL5aESuvnC73d5vb1kvaenvFdvwK2dG1mcriPtHfOXP18IWsuZ0a0tDYe38NzLiZCGi/KdJPuJUoLlsbz07yl/oysMOnaTORCzq0Nlp5hCsc3eJaBB/AE/sjHQKwl8lkA80z+ysypRtyXiVaJBUnJmQwW8sL4DLaQa7qAYWluaQXA1HuduQ5v+6bfIUTHz/lEdADsPZA3UjvnS1ABoAW5Q8qEOZ/OQQBkowFo3sCViLNmfNNvCQOIQBapUBmoA21gAEyQymyBI3BFqvQFQSAcxIAlgAuSQToQgxVgDdgIckE+2A52gXJQBWrBIXAUHAct4DQ4Dy6Ba6AH3AEPQT8YAi/BGHgPJiAIwkEUiAopQxqQLmQMWUJMyBnyhPyhUCgGioeSICEkgdZAm6F8qAgqh6qhOugX6BR0HroC9UL3oQFoBHoDfYZRMBmmwWqwHmwGM2EW7AeHw4vhJHg5nA3nwNvgUrgGPgI3w+fha/AduB9+CY+jAIqEoqM0USYoJsodFYSKRSWixKh1qDxUCaoG1YBqQ3WhbqH6UaOoT2gsmopmoE3QjmgfdASai16OXocuQJejD6Gb0Z3oW+gB9Bj6G4aCUcUYYxwwbEw0JgmzApOLKcEcwDRhLmLuYIYw77FYLB2rj7XD+mBjsCnY1dgC7B5sI7Yd24sdxI7jcDhlnDHOCReE4+Aycbm4MtwR3DncTdwQ7iOehNfAW+K98LF4IX4TvgR/GH8WfxM/jJ8gyBF0CQ6EIAKPsIpQSNhPaCPcIAwRJojyRH2iEzGcmELcSCwlNhAvEh8R35JIJC2SPSmEJCBtIJWSjpEukwZIn8gKZCOyOzmOLCFvIx8kt5Pvk99SKBQ9iisllpJJ2Uapo1ygPKF8lKHKmMqwZXgy62UqZJplbsq8kiXI6sqyZJfIZsuWyJ6QvSE7KkeQ05Nzl+PIrZOrkDsld09uXJ4qbyEfJJ8uXyB/WP6K/HMFnIKegqcCTyFHoVbhgsIgFUXVprpTudTN1P3Ui9QhGpamT2PTUmj5tKO0btqYooKitWKk4krFCsUziv10FF2Pzqan0Qvpx+l36Z/nqc1jzePP2zqvYd7NeR+U5iu5KvGV8pQale4ofVZmKHsqpyrvUG5RfqyCVjFSCVFZobJX5aLK6HzafMf53Pl584/Pf6AKqxqphqquVq1Vva46rqau5q0mUitTu6A2qk5Xd1VPUS9WP6s+okHVcNYQaBRrnNN4wVBksBhpjFJGJ2NMU1XTR1OiWa3ZrTmhpa8VobVJq1HrsTZRm6mdqF2s3aE9pqOhE6CzRqde54EuQZepm6y7W7dL94Oevl6U3ha9Fr3n+kr6bP1s/Xr9RwYUAxeD5QY1BrcNsYZMw1TDPYY9RrCRjVGyUYXRDWPY2NZYYLzHuHcBZoH9AuGCmgX3TMgmLJMsk3qTAVO6qb/pJtMW01dmOmaxZjvMusy+mduYp5nvN39ooWDha7HJos3ijaWRJdeywvK2FcXKy2q9VavVa2tja771Xus+G6pNgM0Wmw6br7Z2tmLbBtsROx27eLtKu3tMGjOYWcC8bI+xd7Nfb3/a/pODrUOmw3GHvxxNHFMdDzs+X6i/kL9w/8JBJy0njlO1U78zwzneeZ9zv4umC8elxuWpq7Yrz/WA6zDLkJXCOsJ65WbuJnZrcvvg7uC+1r3dA+Xh7ZHn0e2p4BnhWe75xEvLK8mr3mvM28Z7tXe7D8bHz2eHzz22GpvLrmOP+dr5rvXt9CP7hfmV+z31N/IX+7cFwAG+ATsDHgXqBgoDW4JAEDtoZ9DjYP3g5cG/hmBDgkMqQp6FWoSuCe0Ko4YtDTsc9j7cLbww/GGEQYQkoiNSNjIusi7yQ5RHVFFUf7RZ9NroazEqMYKY1lhcbGTsgdjxRZ6Ldi0airOJy427u1h/8crFV5aoLElbcmap7FLO0hPxmPio+MPxXzhBnBrOeAI7oTJhjOvO3c19yXPlFfNG+E78Iv5wolNiUeLzJKeknUkjyS7JJcmjAndBueB1ik9KVcqH1KDUg6mTaVFpjen49Pj0U0IFYaqwc5n6spXLekXGolxR/3KH5buWj4n9xAcyoIzFGa2ZNGQwui4xkPwgGchyzqrI+rgicsWJlfIrhSuvrzJatXXVcLZX9s+r0au5qzvWaK7ZuGZgLWtt9TpoXcK6jvXa63PWD23w3nBoI3Fj6sbfNplvKtr0bnPU5rYctZwNOYM/eP9QnyuTK869t8VxS9WP6B8FP3ZvtdpatvVbHi/var55fkn+lwJuwdWfLH4q/WlyW+K27kLbwr3bsduF2+/ucNlxqEi+KLtocGfAzuZiRnFe8btdS3ddKbEuqdpN3C3Z3V/qX9paplO2vexLeXL5nQq3isZK1cqtlR/28Pbc3Ou6t6FKrSq/6vM+wb6+au/q5hq9mpJabG1W7bP9kfu7fmb+XHdA5UD+ga8HhQf7D4Ue6qyzq6s7rHq4sB6ul9SPHIk70nPU42hrg0lDdSO9Mf8YOCY59uKX+F/uHvc73nGCeaLhpO7JyiZqU14z1LyqeawluaW/Naa195TvqY42x7amX01/PXha83TFGcUzhWeJZ3POTp7LPjfeLmofPZ90frBjacfDC9EXbneGdHZf9Lt4+ZLXpQtdrK5zl50un77icOXUVebVlmu215qv21xv+s3mt6Zu2+7mG3Y3Wnvse9p6F/aevely8/wtj1uXbrNvX7sTeKf3bsTdvntx9/r7eH3P76fdf/0g68HEww2PMI/yHss9Lnmi+qTmd8PfG/tt+88MeAxcfxr29OEgd/DlHxl/fBnKeUZ5VjKsMVz33PL56RGvkZ4Xi14MvRS9nBjN/VP+z8pXBq9O/uX61/Wx6LGh1+LXk28K3iq/PfjO+l3HePD4k/fp7yc+5H1U/njoE/NT1+eoz8MTK77gvpR+Nfza9s3v26PJ9MlJEUfMmR4FUIjCiYkAvEHmBEoMANQeAIiLZubpaYFm/gNME/hPPDNzT4stALXtAIRvAMAfsWWI1UNU1hWAYETDXQFsZSXV2dl3ek6fErkjAPTYWniGh11u5e8D/5CZGf67uv9pwVRWa/BP+y9a2gS82vnxFQAAAFZlWElmTU0AKgAAAAgAAYdpAAQAAAABAAAAGgAAAAAAA5KGAAcAAAASAAAARKACAAQAAAABAAABIqADAAQAAAABAAABPgAAAABBU0NJSQAAAFNjcmVlbnNob3RYiTmbAAAB1mlUWHRYTUw6Y29tLmFkb2JlLnhtcAAAAAAAPHg6eG1wbWV0YSB4bWxuczp4PSJhZG9iZTpuczptZXRhLyIgeDp4bXB0az0iWE1QIENvcmUgNi4wLjAiPgogICA8cmRmOlJERiB4bWxuczpyZGY9Imh0dHA6Ly93d3cudzMub3JnLzE5OTkvMDIvMjItcmRmLXN5bnRheC1ucyMiPgogICAgICA8cmRmOkRlc2NyaXB0aW9uIHJkZjphYm91dD0iIgogICAgICAgICAgICB4bWxuczpleGlmPSJodHRwOi8vbnMuYWRvYmUuY29tL2V4aWYvMS4wLyI+CiAgICAgICAgIDxleGlmOlBpeGVsWURpbWVuc2lvbj4zMTg8L2V4aWY6UGl4ZWxZRGltZW5zaW9uPgogICAgICAgICA8ZXhpZjpQaXhlbFhEaW1lbnNpb24+MjkwPC9leGlmOlBpeGVsWERpbWVuc2lvbj4KICAgICAgICAgPGV4aWY6VXNlckNvbW1lbnQ+U2NyZWVuc2hvdDwvZXhpZjpVc2VyQ29tbWVudD4KICAgICAgPC9yZGY6RGVzY3JpcHRpb24+CiAgIDwvcmRmOlJERj4KPC94OnhtcG1ldGE+Cs15724AAEAASURBVHgB7Z0HnFXF2caHpXeki7TFAvaCYkc0dlBjjWKNJbHGkl9MLImmGHv/1GisscSuKHbUiF1UEAugCAKC0kSl1/u9/7k7l7N3T7tt95Z34Ow5d86cKc/MPPPOzDszjRJijBpFQBFQBBoQgaoGDFuDVgQUAUXAIqBEpAVBEVAEGhwBJaIGzwKNgCKgCCgRaRlQBBSBBkdAiajBs0AjoAgoAkpEWgYUAUWgwRFQImrwLNAIKAKKgBKRlgFFQBFocASUiBo8CzQCioAioESkZUARUAQaHAElogbPAo2AIqAIKBFpGVAEFIEGR0CJqMGzQCOgCCgCSkRaBhQBRaDBEVAiavAs0AgoAoqAEpGWAUVAEWhwBJSIGjwLNAKKgCKgRKRlQBFQBBocASWiBs8CjYAioAgoEWkZUAQUgQZHQImowbNAI6AIKAJKRFoGFAFFoMERUCJq8CzQCCgCioASkZYBRUARaHAElIgaPAs0AoqAIqBEpGVAEVAEGhwBJaIGzwKNgCKgCCgRaRlQBBSBBkdAiajBs0AjoAgoAkpEWgYUAUWgwRFQImrwLNAIKAKKgBKRlgFFQBFocASUiBo8CzQCioAioESkZUARUAQaHAElogbPAo2AIqAIKBFpGVAEFIEGR0CJqMGzQCOgCCgCSkRaBhQBRaDBEVAiavAs0AgoAoqAEpGWAUVAEWhwBJo0eAxKKAKJRMKsWbPGxrhx48YlFHONqiJQ3AgoEUXkD8RTVVVlVq1aZb766isze/Zs06JFC7PeeuuZHj162HeNGjUykBT3dJOQ7xvJ90Em/Tv724g/NV7x2xguTCPz2Wefmc0228yGxzv3PcS4dOlS07JlS2tnXbt41fiHW9KT9FN8ld9NmzZN+WGD0D+KQAMgoEQUAfq777xj/nLJJebjjz82ixYtlCotpCPfwDnNm7cwXbt2NZ06dTKdO3c2CxYsMEuWLBFCWGJWrFhpVq9enSIqSAISwM7dIS6eMfgD4a1evcosXLjINGvWzLRr1860bdvW7LPPPhJWc/PAAw+YGTNmmEGDBpm99trLbLDBBqZ9+3Zmzpy55qmnnjLvSFwHDBhgiYXv+bZDhw6mdevWlqD43a9fP0uq3bt3N02bNDGDd9st5T7FdzZGxqxes9o+ES8/kq1xpjdFIGcEGkmr6JrbnD0rFw8cJFdffbW59NJLzbJly2xlDUufq6ju2zC3mb6rqkI8QupCmkl+DTl4DeH6hU28IM06psafTkKgpA+ChLB6rtfTdF+3u1l//fXNRhttZPr06WM23nhjU11dbZoIcTnirGokpClEVSWe4xXxIXyHQ53wStDC4VlOaSrWbFAi8skZKuUTjz9ujho+3FYuVyB9nNaLFUTiCMgFmM4t2bQmSZJa26106cSeZ7p73PlNl69///62SwpJDRkyxL7fasutzCqR4tq3b2/dQFZJUkpKei6+ECmmmCu1S7+NqE13kmzplrt0FXP8bbxL9I8SkU/GUSCPOOIIS0bZVHAfL4vWypGON4JJCcxrk3xOSmFru5PYtmnTxixevNgSTKtWrcy6665rtt56a9u15H2HDu1N7959bNeyW7dupmfPnmbLLbc0zZs1F0kqSXa4i2fIjRpWhp19jCPOZBe6du45ErGEA9EgxUnXeE0N2a5audJ8L2OAn3/+uRk//hMzevSbtkv+448/2i7vDTfcYAYPHlzUZOoDSUlYKREFZNOmm25qvvjii4C3lW3tKjQouIqf/owbiGuNdN/WrEkSgiM9CAmJiq4fXT7uSFRJ92ssiTHGhXukMuzdhR2Xn7HdRiGV1QzIS5hNmzYxzWVioYn4sWjRIvPzwoV2DI/fVXL98MMPZv78+WbixIlCPOPtGNvUKVNsV5MwCJP0QVa4X2eddWyZ6NKli1/wapcDAkpEaeDZ1lLsqCzz5s2zBTHNSYP+TK+ELr5RkUrW3WQFjvtNlJ/ZvmdciYptK7lUdAjEpcsbN2sHEaQF5GjIykdppOT9HiKhS9WxY0c72ykB0je04eKH85dwIDw3/oWXq1endy2Tkbj33nvNcccdJ3KZOHIRSYuf/swcgdojnpl/X5ZfUDCXL1/eIGkjbFsBA0J3ldfdbaWWCldKBgKg0nORDpdmJ/U0bpyUgLh7ycK5g0zSVSIcZnCDe6aLyXjf/PnzkvDAMGJs17MGZ+eniw9k5SS45Edr/0JWb731lo2zktBaXPLxpNP3aShSMCm8SSJy1SDNkc9PvvO2xj5OYllRGTFUDOsnlVV+85x8x+yYdWL/oFOEbhHvg0zqnXzo/MKti2/qfY0Hzj7Iv1zt8T89jPTfhCFJT5n09+53+t1+UAPQqlVJ9QPJzlrGix8vnB88M14UZMBp8uTJQa/VPgcElIh8wFspg5bJ1trnZYAVhZmCGswH4ZKO11tHDPYuxORt5ekP0KITP8yECRNqxjI8tdbrmTw3kql2/LJpku/4nvrm4sqztzKmfa4/axAAv1mzZqVwU2Dyh4ASkQ+WS0UpcU16M+rjLt0K0R3FQ8YkVqxYYSs/XaemNQOvjFfw3hk0tJ2dmx52fuwmioZTpk4xM6bPsETTRnR8OssgKQOmjF2hOMmU+rczv7WDHUwxYxxBOWKBgFCMZPB31sxZZsGPC5IDtz//bP1YKAO4jpBcvLzfYockhp27sHNk6dxihwmyT74t/b9z586VsiGzfVpz8pqZCqcPnD/++FOoiO79hIpHRb3iiivM4YcfbpjCZkrbEQLvHMkku1aerxFFMGlMQOV2bmtXdKQuSAHpJ7grhpfuO+LHP/577eh6Qmb2WrxEZpR+NkxT//TTT/aOBve0adOsBPD999+b2XL9sOAH0cpe28/xxtMlwY2vEK4Lj/iUgyE94IYiZ2P5pyZ/CCgRpWFJYZs9Z3ayZZfn4BGDtR/S1dldpqPRkeE5SRbJL/1IwH2JCydBYEfYljhcrXbvrUNcuMqdJCH8djH0+oNLZ1KEIH543SCZISUxbW7tJWx5qOWG+HBhWKLykxA0hDVnzhwzdepUOxM1ffp0O/0NWSGpMR3OMpWaz6zmNf5af/BP/CL2SV/xOf8m3f8UBnkIivFDuu5gpyZ/CCgRpWFJhfnmm2+StuklOs2t+1lV1dj07NXLVmJICOOt9H6//ezSv8GNNUneST56SAoLS3T2Te0/zi9HJH7ucOPcQRbphm/se3nF8g+kve6J7lbvZ9ddd7Xv0LGx5CLfI12xKPgbIanPRClw3Lhx5ssvvzTfffedtYfMYCgbLhTqYSPsXFzd3WtXJ2418fW6xQ3W+GuXntQEYNMg73Ab5md6GOm/8RtJFyJSk18ElIjS8KQ6ouDGWM3KlcEDwN7PWEzKolVX4L3vSvoZMDyG9KWn0U6j2wqfsGTFolquPX7xC/ulq/x0aSCpTz8db8aM+dB2+SZNmmRmzpxplohm9mIhMcbVGOuistvvxAf8Tw9zbZQgs2QkcUOesZsAY2cs9mVGEQJ9+eWXrfKiIy2+9z6v9S/qKZl+1+2Ocq3v4yOgRJSGFY30J598Ygs1Kv+eRjvNZfInYzkbyip4pAdX6XwdNpBlcCXOX4SSYaSxlnjvrex0BXv37m169+pt9t9/qA3cGzfcIl2h/QxhMTtFN4/BdCQtukQQAAPvLVu2EIXT7taOXQ/QdIZ4ICDIyBlvfqDisPfeexsGm/ErG+MIUokoG/TCv1EiSsOHykFXwhZWZPEa8T7NWa2fG2y4IR2NWnb6o2731GIikELaGC9RYNdISARC4dpQMHVu3J28cd+4ZxoCL6E5t9ydPd+wZIdxrQMOOMC8+uqrtUgSt2oaFoHSUsktMFa0dHQhPvzww9itJt/0So0P1ZUKChzlkvbeEYVNRBp0EAwXEg4XM4/eu3tXy48aNLDz2rvfdNueeeYZc80116T8ywRA/IHU1OQfASUiD6YUspEjR6Zs4hQ6hKbq6urUN/pQvAhAXi1kM7tzzjnHvPDCCym1iuKNceXETImoJq/RzWEr2KOOOsraxCEhHDJLxraxOm5QA2Sx36ThQLL5hQymP//cc7W6enGijlSGZKUmvwgoEdXgiSLe3/72N1swMyEVCIs9eNJ6FvnNJfUt7wgwJrXzLrvYsSjXdYsTCA0W7tXkFwHdBkTwhExQ0kOy4TkTIqKF5FuWdagpLQTI65nfzjR9q/vGzncUGZnNQ3teTf4QUImoBksU71hflgkJ8SlT0mgnqyk9BKw022Nd063m4IKoFCAJ2a5ZE+2aRWGV6XslIkGMAjZedIeYD8lE7Gbwc6uttkqtC8sUfHXfsAiQf1xH/OpXViKKig1lg5NPqmSfJDX5RUARFTyRgiZMnGALWabwuuN7Mv1O3RcPAqecckosSZihoZU1mt/FE/vyiIkSUU0+fv657E8tJQ1xPROz/fbbZyRFZeK3uq0fBDiVBK1sJyEFScU0WNYNjKQmrwgoEQmcLGJk8/RMx4fICQa4mYFRU5oIQDoMQO+8886SgOSi2OCUJLd8Sd+mNti9vomLQMUTERIQSzrYhwcT1BoGAcpgtZrSRoAycMcdd8juAq0jJWJbPjITmksbnHqKfcUTkZQ8u+cz0hBX3K4ZInp1dbXpKDsmqkBUT6W1QMGQl5xoe/rpp0sI4SzDtL0OVuc/IyqXiGrK2wLZlfCpp55MIpvR+FDCbvv6uZx9ZskrvPzmP+fUx7wjABE1lyUgQQZpCNJSk38EKhJViGPFyhXmnnvusSd43nPPvZZMMuESNLHZuH5rmb4///zzzTw5sma1ZxvV/GeV+lhIBCAZNOQ32WSTwO45bhhPst2zQkamAv2uSCJatmyZnGt/lDnxxBPt9qZ0z7IxEBpfXiurudmT6OFHHjbLxe+43btswtRvCodAs6bN7MSF8I2vIV85MTabSQ1fD9UyhUBFEREFiY220P158olkd8yRSQqRLB4gox9lsPuYY44xm8i+N1Pk2GKMEpKFoWT+0Kz0W7+fxNefichPTl5Rk38EKoqIFixYYAYOHGg4oaJQhs23Nt54Y7PXXnvZbVALFY76m38EIJo5s+fY7UGCfGe/Km1ggtDJ3r7siYhCw/XRRx/ZPYzZ6qOQBQm/0Ut6ddQo07//AHPxxRfb43lcmO6efZbpl4VCgLGfQYMG2b2z/cLgPd0y1RvzQyc3u7InIgrNc7LvzF577Wn1hYL6/7nBWPdrumtLliw2//znP80ust3EKCEmSEgHOutiVSw2lBU0rLWxqP8cKVsicnpB11x7jTnssMPMggU/WnSFC+rVUKg/l6N1hg0bKnoqp5lFCxfVxKOeI1KvqS7NwBgjWiwnijBF79dgkJf2itA1Ks3UN2ysy5aIOJrm7LPPtlPrPDe0WbFipbn99jvMkN2H2Gl/4qMtb0PnSu3wIR+61Y5war/VX4VEoCyJiOUahx56qLnllluKqlBRwBmrYsD84Ycftmd4aeNayOKdod8ipHKIZFADgT2HROr0fYa4xnBedscJoecxePBg2x0KKlAxcCmoE2Zehg8fbtBnOu644+xmWwUNUD2PhcAa2QaWAxmDDF024SIloiCAcrAvG4mIc8iYnmdbji+++Dz2cUA5YJf1p3bmRboBJ598snn33XcDW+CsA9APs0KArhkSUZBJNmyJpCQb5Ejts0KgbIhojpwOutFGG9nxl9Wr4x0VnRViefqIQs215557Go5eVtPwCEBE67CIOcQw3ogkqya/CJQ8ESFdoC39qyOPtJuauwqeCUwUQK504+zZp5gL0dxeHvd85f2W93ENcV2xYrn5wx/+UNQSXNz0lIO7VbIDozc/vWkivzAMaKvJLwJlMUZ02223mTfffDMrZCh0FDBHQ6nfNfZsfNatWzd7AiwFEEJq27at3Uhrxx13TB2NzPnsxOGRRx4x48aNi93domxz2N9DDz1kjj322KzSoB/lBwHKQfPmzQM9SxJUwpaFQEf6IisESvo4IQrOe++9Z3bffffYhcMJPltttbUdMIZMGBdAsvr+++/M3LnzbIsI+XCUdO9evU3rNq3t+9XSWlYJETXlFAeYS0gE3RNnKKiI7igvXnDBBXbXR+8716I6O++9f//+ZsyYMfaYmmSB977V5/pC4P777zfHH398YEOCxPuFbP3CMIDmUx5zRSpHSZo1a1YnZPYpMXTo0IQUDtgg8pKCk5AxgMTdd9+dEOkmIeRjLxnoTnBhnF3UPQg0vsOIYlxC9rdJyKmgkfFycb/qqqts+EF+q31hESDvHnzggQTlxOWJ9449ZW3c2LGST8nyUtgYVY7v8Qc0JEeKycgWVeall16y3RrJrsioIQltscUW5hM5NuiEE05ITZnTqtHKceEPv53hOehybtLv7nuWCqDHdPvtt5t27drV8jf9G/cbt8WgfOniU3n3qK6ZkXLSyPz088+VB02BU1yyRITOB+u4pBULFKMddpDDdtsNMm+88YbtbnnJxbnh7kjEvfe+y/TZ+fXrX//avPPOO2brrbdOkVqQX99884155plnItMT9L3a54qAHKAo55YFGdo7rnnz5gU5UfssEShZInr77betlnJUuiGEnXfayZIBg8z1bZCy2PXvg/c/sHpDYdIbulDXXnttfUdRw6tBYI2ofUhXOhQP8u9H2V44aM+i0I/1ZSACJUlEFIa///3vsaa8GYx+Ubpwbvo9EIkCvXDSFeHfcMMNVjIKCgq3Y8eONdOmTVPt3SCQCmjPpvgdOnQQydU/ENeIzJ0710q37re/a7XNBIGSIyKkhi8nfWm7WWEFgUrNrBdrusLU9jMBKye3UrhbtmxhZKA81QVM94/0oCJAlzOoMqR/o7/ziUDCbmrXo4ecVeeTAdZO8gi9NYyfm3zGppL8KjkiYlD5NNlOgwrrR0QUDnc98cQTpmfPnkWTn40aVdluGlJaUCEmTffee4/56qvJRRPvSomIQG/YYXPWrFm+ZcviIOWLrUL8yl6l4FSIdJYcEY0bO84qDoYVBCr5NbKhPavcgyp8IcCM4ydjEDfddFNovFiicvjhh+tSgjiA5tENZYquGd3oMKPbxYahk927kiEiCgnq96eedqqMDaGGj2hcN9G4QxmRBaWWhKJn9ut6UkAbdgHccsstzVZyDBHSnR9RijaT+fTTT223MoxwCxjNivSa/ICEwNynaKUwWbR4kW++pRzoQ8YIlAwRkTL2gvnwww/liWUZyanU9BRTsa+TmafkuJA4CitR6R/Xx29LoI3MHaIz5GZo0gmVtGHOPPPM8G5C0pn+zRMCEJBTBwlrv5hdw2gjkSfgxZuSIqImouPBkb/pFdcLR9OmTcywAw6oabGKjYWSMaXV3Ua6jZdffnlgPCnkEO+jjz7qTZ4+FxIBwRypO8yQd86NnzQb9q2+C0agpIioqRARi1BFEz8wRR07drIboOOg2AsKyo4tWrQMTAtkxCkgs2WLEzWFR6CRdM04yTVK0mHNYZSbwse2vEIoGSKCVCgo3bt3D8yBKnGzgZy4at2GiU2BPtTfC+LYvn17WTy5oX8fU6LipKIRI0bIj/qLW6WGRJ6w+h4yCjMrhYhwqyZ/CJQMEZFkMr9fv352vY8vBFI2ONyQQcdSMX379g3lGMgINYRVMkCvpvAIgDfjRDRqfoZ36LJhVCryQyg7u9KpsTXpY3pVykod41qoHj16yPvi36GRBBDnrl271klLugXLWWbOnFky6UqPf6n8liX1dodGZjR9ihjMY/NMx4jyn6MlR0Rdu3aR8uBbTCw6DGYnQsaQ8g9hbj7GOUsdvZWf7Ypv/1Y6txjo114EUFZkz3PfMlYjJTmJyPudPueGQMkRUZs2QQtXIadGSbE5QKzODarCfL16TVLMD/Odaf6GWLAbFqeyfCflhm59VVVyW+CgNNI9U5NfBEqOiJjC9zMISfDP/Pnz/Fszv4+KwG7J4iWRsWDN3LrrrhvpTh3khgDKpi1ksDqK9JGI3FBAbiHq1w6BkiIiMp8uSlAhgIxmzfouUkXfJb4Y7nGm5rfZZhs7kxOU7mJIR1nEQRqylrJtcMeOHUOT45QeQx3py4wQKDkimjJlSmAC6dd/PXlyyWyhQXzjENGwYcMs+fqOWwSioS8yRQB8V8liak4KDjNusDrMjb7LDIGSIiJmNT777LPQrtcc2SumVCosSwVY6R1m6Ioyi6Om8AjQNeNwhKhusBsjKpVyVnjkcg+hpIiIQSC6J2F6QrwvhQJCYf5OTg3hdNogQ1o23XTT1JFF2jULQipP9tI1A+P58+f7eki5Spat5Kyt5ocvTFlZlhYRSRLZXyhMT6iUBhInTpgQvlm+FHw5CST0rK2scl0/CkWABdPCR4GmFE4SDox8kb4oKSKiNdpJNhVjmj7IzJkzpyTGiGhNx8tWH0HSG+/ZyH3fffYNSqraFwABcKdrJkWtjnESkOua1XGgFlkjUFJERCqHyGGKjWVvYT9DpWbnxlIYTKRQf/vtt7Yr4JcW7Pbbbz+zXs/1gl6rfYEQYL8oJZsCgRvgrX+NDnDc0NZUXk5EbdzYX5eI+EFCbPdZ7AUJ0uRoaj/jWt5LLrnEjocFSU1+36pdbgiA/Ysvvujb2Ll8KPaylRsCDfN1yRER+8FwRliQoSD9+9//DuzyBH1X3/aMZXFiR1ChXnfd7mYTWcBLehwx1XccKzU8Drn065o5PILyzL3Xe+YIlBQRkTwq8G9/+9vQynnzzTfLGfZFNo3vGXMgDU8++WTN+rG6mQbxXHDBhaaFnBabrXGtd7bfV/p3QaOQ4MpFHikh5a+UlBwRMXV/1FFHmVaiAetnKCQUkGOPOTZ8Rsrv40La1ZRs4kf38dRTTw0syEh9vznllFCyjYoqFcVhAR7MNPJbTTgCYMTVSI6WDjIOR5VUgxDK3L4kiYiNq3beeWff1LqC9Oprr5pzzz3XrBHpA1MMrRdxg4SOOOKIUO3dzTff3DSTNU+5GioKK/fRFF64cFGKiMACqSxJUElycpUr1zBL/fslS5bYk1zDdgF1ZUyJKH+5XXJE5JJ+0kknhSo24u6OO243IzhLXipemBKk87MQd1doubNODhLifPsgYiSeQ4cOTZFGNnEiLPw/8MAD7Y6W6F6xsyXX9ttvb8444wzz+OOPmVmyx5FWptoIo0NkD14QDNXUIwJSaEvSLFu6NCHbwlJaAi+pZNaNaMoKF62p13S68Lhzffzxxwk5Zy1BnLj84o29LOlIfPXVVwmRWLKO75o1qxMrV6xMSPc1IcRmL2+4LnypcDZOF110UUJOR7HxtPGuX6iyTmchPiT9os1uMfPLI/AUibUQQVe0nyUrEdF1OfHEE0NbdMlZ8/XXk82NN95od9erR363QRE+XTFm8XbddVfz0UcfJaMQ0tqy0p59t3OR4DhRtnGTKnOtHKvEXkZSuZISloSbHPlgsNUYuiFCkPaIa06fRW/p1VdfNUKdOUlk9Y1zvsIjvzBh+6LnKyz1Jw2BkqVhabVlZiwhhykGtl6SVCt90PILCdRrUmlZf/zxx8Rxxx1npR8nhRCn9ItxZexk7Cvx/PPP50V6I3ykKjmyKCGD37XCdNKRu3vjI8SV+Pvf/56TRFavQOcxMIfZFptvIZhV1cLMYaQSUR4B93hFy1fSRpT+Ars6rvBQ4fr27ZsQBUKb1ly6PXHBkkHihEgZvoXZxct7J44y7hXX+2h3QtSkc/LkybaLhv/e8PyeIUTctWvXLiGSXHQYZeYCIvrhhx8SHTq0DyxTkPpmm22Wl8aizODLKTkl2zWTimQNp6Gyj3WoEZF72rRpZttttxX9nAvMokVrZ5BCv8vipeSGkPsac+mll5r3338/tOvovJfKb4+htl1IZ5nLXShnyZLFRiQbs8kmm8hBjdG7QBIcGuuss0JPCxWCSjPkHWXDO8Poh0ElYuOHQ17tcqIx+ZhWJMrEcRPlR9B7BmbvvffewBZMwKolCSByM4gri2OTXkZHPyjolD2Sh5OyRCs3cfvtt4d2F71xQgKh6zhp0qS8SCFgjV9yOkitdHvDTH8mDnQLR40aFSs/UwkvswekQCTIqip/6RGcmEyQtWhllvKGT07OEtErr7xiZBzEcPqBVEYp47UNLcz3339vpQSpJIHT1rW/yuRXI3PkkUearWXzsKCzqLy+sYUDRzlzYuyzzz5rB2ZdvCQ7Yg/SptxKdZ/81VdGyMfGo0uXLlaiwM8ogyTE9dJLL8meQxtYKQR/czEPPvigka6DmTdvXkbeXHnlleYXv/iF/SbXOGQUcBE5Ji+ai44ag/08q6lHBKTQZWdEkvjyyy8THdq3t63/8ccfb/2hReaSVfB2MHn99ddPyOmZid///vd2IJY+eNJNcnqa51yM80vO/oothQi8VlpACjjkkEMSjz/2mJ1enzBhQoJrxowZVsJB2pKjiWqek+niN4bpbtkrKCE6OgkGeKXgBrakLjzvnbEGJKG33norL1IIEhmSmIuLN6yoZ+IOfkksc8uPJDql+VeUXxNjxowJLUdNmjROyFrH0kxgEcc6p8Hqq6++2mYaBVnO50pIy54qzHQPhgwZkhApxVZ6W1HlmYHQww491Ga4LfiS+bka/EGsvvuuu2xYURXP+z5JIFV2ZgmxG3IiLTvvtFPiH//4R+KYY46xg86iCJjYZ599Eocddlhi4wEbW/fuW+cfv91z1B1dFDAi7vkwjz/+uCUhws0kHi6epDVfcclHehrCD8hcJPxIIkIfTE1+EciaiCi0VEyRYO1FgaYCH3TQQYkTTjgh0alTpxQBucLu7lQUpKSzzjorIV2I1PhKLkmzZLRyVUJ0dmw/PpvK6OKXfsevfPjH1C+S0B/+8IfEwoULc0lu6lvSLfteJ3r37p3Kh/T4x/mNGsSM6TMqnoweE+mYfArCjDHGQYMGJXHKTxuSystKfsiaiBiUTddsdhkYp9LiBveiwJeY/NXkvObBa6+9ZgcU48QjqMD52TvSDbv7fYcdcdlJpKzXX3/dpjVf0gf+nH/++db/bNPLd1x777237VLnNTNKzLOoiQaIaIcddqh4ws53tmY1WC2F366bSj8KB3uMRNLew/7gBvdo9u68y852b54434X56d7tLrs4vvvuu0aWLhiRzFIDj1LZUs/ObSZ3khV1pfsnZGukO2oHs9944w0j3VXrhLjkw8yU9WIMlFvfYuDuG6Z8R3xkfMxqW/u6qQBLyp8ooQaW32SeyRa+FajaUOjsz4qIiBT7/Sxftiwv8cMv6dJZHY68eCiecKb8X//6V/Op7At9mmy5EbRtSL7CC/KHJRbMip188slSgLOGO8h7c95559lGQXoJdgQ+0GHYC2ExTje9//77LWmGOS33dzKZEkpEkJGMJZY7DPWevqxrhoxxmFU+0/XZpADJiP2bZQYrsBBk6i8FBmkEBb1bbr3VfPPNN2bPPfe0Lb/MfGTqXVbuEXpGjhxpRJS34TItnC+DqsTdd98tq+gfF79z8xVBCuwHDx6cm0dl8LWfCopLFjhTpmRCI2/l1Pld6ffcagYlOI9Gxk+sNnIevUx5hX7PCy+8IDo/k2UrjCQxUKiS4nbKWc4P+OkuUbS0ujn56nJ6I8dBk2znkezi5pYPYHD6aafnHQtvfEvhGRzQeSP//IwMx9nhBLpmQW78vlO7aAT8EY/+LrlMIoa7uE6oULRGtMzLpMtXiMpLAaruV20gPJk6N0cffbRdnU4c81GwEEyQ7jp06GC3gj1GdonE5JPsWD4iOkx2XyE2PcvFuHj9+c9/NgMHbpOLV2XxLWVukUj6UQIm3W3cFqKMlgWQWSQiayIqRCZQMRgAf+CBBwqayRQkUbQ0SCyi0m/uu+++wB0f42K6xx572C7gqFGvGFH0tGNepMdV9rj+BLkDb0jurbfeNoTFsUm55gHfH3nUkUZm3WDLoKArxh48vpfy1yhAInJAiOqJe9R7vhAQ8DM2KH59JJrFTGVKPFKXVLrUs9c+02d0jCZNnGjjJZUv4/jF+kC8dX5zlzGqrONOum+99dZa/sWKQxxHnngKQVv9q3zhjFb54kWLUvGOE51ydkM5QNEUpdagMiuSs1VytVr35QxGPacta4moU+fOMmi3tmWgayNxl/zL3dDaH3rYYVY6ypdEUSdWIgB4/c6llUOWaN++vZVYCMfrb51wM7RgkzI2V7vwwgvtmj66Y7ngTNyQCC+++GLz6KOPmlb2eGWVhly2hHV3wU5Y26qESC67T/SeBwSyIiKyoGPHjnbK18UBfZ2nn37abCxnceVqqGgMxrIdBRu/S0uVq5cR3ydMq5at5Ix5FjxGOPV5TQGV7UXzSkAEAw6k/VnZ4/qKK66wv4lfJkSHW+eeMTLRCjbPPfec3SJE9WHqZiaNYJABxyrB0KmC5NIgBIVRsfYCZlaGBYLDhg4V7ejk1giyxajVymV/aJkyDxRtBeiM3u277752p0PE5kIa0iNjL3Z5SCZxlMJpN8rKd9xIL9fhhx9uuwqEs/aKhyHdCLrPLN+QTfsTaJwXGsd841Cf/jHkUF1dnVqzl14OHP7//Oc/LY6KZf5yJyuJCNZmQO9imW3p2rWbOfvss+0AKopezBiNHj1a9v3thrOcDcqAsvSg4AcmrhbJAz2jMD0Sv8RI4bTT6NlrE/r5mrSTgm41z+ma1TbRYhvdr2HDhpn33nvfyFo088gjjxg0zkU+qu2V/kohAM6c8gruQSiR30hE3LnU5AmBXDmNVe/pZrXYyexXYsMNN/S04tkPZEt2J0QPKDFxwkTbEtFy5dvgJ9uaCKyxLimECeIl3bnEfFm4W6jWsa9scRu0UZc3rsTHSafHHntsYsGCBbUhKqxAWTusEvxF/iHNt2nTJrmzgk85AGPpzibuuOOOEkxhcUc5a4nI8WDjqrpayvSjUSDk1AqkJWdoQbgyNTADy0AGbjvQ/OUvfzE/yXqgfJsq0Xru16+fGTCgfyyvJVvlpIzGBl2hdWS8LJ+GtP7tb3+z8ZG9kWIPTldX97OYo5bA4DmGeHKpiUaAMbPQcbMaLNGsVpNnBArNk2yQNn78+IQc/WM3ApPoW4mD8Qv3nMmd7xjzQApBismnJIJ/MpOUkuLixEsG6PMGIeNUt9xyi+zZ1DbZKsskTZw4CLcnzjvv3IQM7OctLpXmEdjLvuZ2fAipB2nXD3ukov/+978JpH41+UOA1rLgxhGGqM/bAVNZqGkHtMlULr8MD7Pjm+uvvz4hJ5UmZNvXvJIR+yMRdtx4TRR9p3yR4ZtvvplR2MST/bdtxYCU5VKTHQJgJ+sR7Z5aQUREI8g1YsTTSkTZwRz4Vb0QkV/obBkrizYTG220UUYSiJeg2IiNHRRlSYhfEBnbQSj4hb/ecIKeKbB1xmJihkpY06dPl3GvCYmxY8cmnnrqqYScMhIrXOJDhZAV83aLW/zKFxnGjH7ZOYOIZOuY0LJI4wTusmZRiSjPJaDBiMilQ86DT8gRP4mWLVvGroReYoAM2N4zHxUxWaFX2x34ogaImRZnMN5vsN6lLehOOCNGjLBa0hRsRyzu2Zu+oGe0f19++eW8pDsonpVkDxGh3kAeBEnD2JPv//vf/5SI8lw4ch6sloqSk2EfnMsuu8xwGohsRJ/x4lMWgTI1LbjkFA/3Md5sO3CgDKqHQ8N7ezQ0AzQZho37O++806DFK6Rkg+ZOWoIMQ/xSEYxsuG8ekpM6ZAmM2WuvvbIa/A8Ko9Lt7WkzNfkRhIW0ITYPgt6rfXYIhNe27PzM+CsqmGyjaheLcga7/Ixt4AAWycr4il0IGvvDEIfsHyTjWiEukqTAXkfQXya6OZAQfn/yySd1/A/jM/S2RPozu+22myxUPcr06t27zvdqkRsCHH2VLHzBjRplVWfNcsPZ7+uiICIiRgZL98wSyjnnnGvXQ4mYbOPMuyBDxWbbEJT1+vTpYyWNILdx7WUj+kinhLvOOutYaShqb0SknaTEk9yS9ZNxn5jvvvsuMgzngPSjDnHwwQeb2//1L4sVpKQmvwiw2V/ShJc3JaL84o5vRUNELmlUumuvvdYsWPCD3XMHeyo8msJhBmKgcrM+Ldejmzt37mIre1h4SDUQZ5ghTlwc6HjVVVeawbvuKmv01jGDth8UKXE5EmaLEtbbcWT2ww8/bHr26pVxVzAsjvpuLQJg7nBfa1v7ifKZywLp2r7pL4dAUW6+S2a3atXaLqKlErOgloWaR8neOVKvQw0VXw5zlPGb9c3++w+NJBSvZ4TLv+Yt1u4q4H3vfRanocpvxAP/ZHrfSjJsxIYdhvZWFJ3tc9Af/Jd1Zmb48OE2HPxyxvvs7PSeIwKC79KlS2wDEYZvYyEru8SjRlrPMVT9vAaBopOIXM5QGOT8dtOndx87ODhs2FDZU3k3abHWVkjnNv2OtDJ8+NF229mwbR3Sv7O/xXvbKkYQBa9Zre9nHOGIfo/dr5qBZWeH+yAKIs1chL/11tuYW/7v/+xG7WEVwy98tcscATCeMeNbi38Y3i1ECm7bpm1GDVzmsam8L4qWiFJZIcRAwUBComL3FmLid+A598IQUJWoBdiBXTk3TRZ+vleLCFJ+BzzYRaYSRpiBEJctW7tVqyUaYRjunAQhhyja/YOIRxDx+Pm/ySabmHvvuceSaBchYjX1gwD55sbtgrKecsfYXNOmRdmRqB+gChRK8RNRTcIpBMxSffD++3a92bbbbecrHVHpXcVnJTVndckiUNtFciuro7BkBwHCCzMMPrcT1QOvWb1mtREdE7PjjjuYG66/PjVA7XUT9EwBv+SSSywBHXvscZHhB/mj9tkjQANCvnulV69v2DMh0iRivNL7jT7HREDALSkjBGDjy+p+d6y1JNXxT+BdKnpiq622SsjG85HpZX1cs2ZNA/0iPCmwiRdffNGud5OuYGLq1Kn2CG3sU1eMeOGXdMUSIgkllixZogqKkblTGAeUq+22287uRxWkzCrHUCX69u2reVSALCgZicjxKi0WpkuXzmaXXXZx1pF3p7uz/fbb2xM2kGhEm9b3O8JoEzUOIK0jCpiyTMOcc845RrSszc0335ySZCSvUpKZbyBiSVLYw4nv3377bXsopEtf0DdqXzgEZAuQlIKpXyiSpaapHq7oB03OdiVHRGtT3Mjst99+a39GPFHBIQcI6dBDDzW/+93vDJuhQUjphm4Sp3zgPsjwhgMJq6urjayYF39WWxLCv7DvvP6hnX3VVVeZa665xp6wqiTkRaeenyWv58yZk2pIgkJnsFrzKQid7O1Ll4ik4AwZMqSWlmtYAUknB8iD/bUnTVw7re4VYTrL4QBRhjEFjJWuRPU/PYyg74kn1xZbbGFkexT7HKW/EuSX2ueOAPmGOoVsjGY9k8dAI1u02A533LwO9Ehf1EKgZImIJQ+yct98/fXX9poyZYqc+fVWqG5PrZTLD75hs7UzzzzTzrJJcUyRyY8F2HzNG/4pp5xi49uuXTtrrQXbi079P8v4nEGzOmy9H7Hq2LGTtFchTFX/US+LEEuWiEAfqYJxGnZWpIvEbJWs5E/qAcXIHio/CpO33Xar6d+/v3x7ofnqq68sGbEAshCGMSG6YrfdeqvVj3JSnLsXIkz1MwoBOeF10UJbFigTYY1ClIZ/VEj63h+BkiYivySde+65dgDY712QHaL4bCGeK6+80my5xZaikb2/mTlzZpDzrO1lnyPDNq6yMZw9liZrj/TDvCJA/s+f/4MlIJ7DDA2JmvwjUFZExOAvOkBnnXVWcllEBni58rd8xXIj0/L2NIcMPg91irQDCf1LFqyyZENNcSGABCTqIKGSEDEmH9mGRUb4iisBZRCbsqN3CguSDYXr/2SJBAfmhYna6XmYidv0b4N+E6erZXYMxUotxEEoNaz9XJkxizLMuEJEjCUKLUU51/cZIFBWEhHpptIz/c44zE033VRrVi0DXPLmlNkwBsPPFCnNzoxp+c0btvnyiMbn25hdcSRuSIhypiZ/CJQdEaWgkcLFliDPyHHNyQPxUm/q9aFHjx72aCA/faV6jYgGFogApBJ3TDBJRIFe6YssEShbImJ6H8MpsaPfeEP2DkqezpklThl/5lpMOSDAnjGmekIZQ1hvHyBBszg5jukoZ9i5vI3jXt3EQ6BsicglH7F7G9mDGh0jJKP6IgQKK7Nv7ByppvgRkNNYIiNJWXJ6X5GO1UFGCJQ9EUEIXFtuuaV59tlnrRa0s8sIqQwc4z+tLNrb3NUUPwLsghllGBVi9rMQExpRYZf7+7InIpeBSEJDhgwxD8ueRhBFIQ17Gj///POmb9++OktWSKDz6DezZpGlQsqNSkR5BN3jVcUQkUvzoYcdZoYNG5Z3MqIQQ3AtWrQ0jz32mNlzzz2Tm4BElm4XM703FAJIOIsWLyYDI6PQvn37SDfqIHMEKoqIIAo0Yzl+qE2b1pmjFfaF+M2K/ddff80ccMABSZfR5TrMR31XTwhQLjgJJo5hMbTqgsVBKjM3FUVEDhoOdTz99DNylorgGbp87F2NsuJHH31kZHMtF4zeSwQBVCsWL5YzzSIM2xNTdqL7cBEe6es6CDQSsdStbqjzspwt2Da2urrazJo1K+tkMhAN8Vwv28JyKCMrt1lmoqZ0ELDdMjlYkWl5u1d5QNTZo7x793Xtjg16nFAASDlYV2ytoYvGjoq5mDFjxtidFbeXc8oo0EpCuaDZcN/OmT0nlIRczNgznYmICm27HQwFuVcsEdGl+uUvf2kuu+wyK2lnMpOGW75n+5Hkd6ryX5DSWU+eTpo0MVK/jEamb9++NkaZlJV6SkLJB1OxRORy7o9//KN58MEH7amtFLA4hYwu2dChQ5PjBc4jvZcsAjNmzIjMd9kx3/Tq1dN3a+GSTXgRRbyiiQipBlI5SrbmkNM97OJUtK+jDKuwjznmGOssLnlF+anvGwYB8nLsuHGRRMRWsgMGbBx8nl7DRL9sQq1oIvLm4oABA8yNN95od2gcOXJkzULZuvPvEA9jBLsPGRJZeL3+63NxIsBYISexhC1KdlIyWxO7NYzFmZrSjZUSUU3eucLWrVs3M3T/oYa736AkdkhRLUVyUn2S0i34Lubkp5xJF9qoIDlTPlSr2qGW/7sSkQdTChuFjqOBOGHDzyAj4Y69i3UTdT+ESs+Oo6YlSwMNZEWec+6ZmsIgoETkh6sUukGDtrOFL/21V+mKwqmmxBEQkkF/aPXquufbkTKXx5CRElHh8lqJyAdbCt966/X07ZrhnPEEFCLVlD4CEBDLOxzhBKWINqeVHK6opjAIKBH54ArR2F0dfd45GWju3Lk+b9WqlBBgSn7y15NrouyVdWunApJq3ryFaSrKjGoKg4ASUQCuC+QUV7+i6exGjx5t1sjUr5rSRYC8fPvtt63kG6YVDxGxBESPEipcXisRBWD76WefBbyR3T1kvIABTnRL1JQuAki+H3zwgZ0FJU+DDETEqvumTZoGOVH7HBFQIvIBkOn5N9980+dN0opC26FD+8hlAYEe6IsGR4A8bNy4ynzzzTe2YQkjIt516tRJDsWsChw3bPAElXgElIjSMpBCh7bt5MmTQwcw15WV2AxgqilNBJBy1qxJmIkTJ0aSC12yjuusgygcWiZKE4niiLUSkU8+sPZo6dIloQW0nd2pT5nIB76SsWLanmOEwrSqSQzbu3SSrpl2xQuXtWV30ms+oHr44Ydp/EINW0LQqqopTQSQfJ30G5UCJKcuXbpEOdP3OSCgElEaeBRO1pqFkQz0w+ClmtJGYLVIRFHGkdVAOZIqrExE+aPvwxFQIvLg4wrd119/LbYhIpFIQrpBlge4En2M29Wy40kybqgCcOEyWonIg61r8Tj1M6hrhhvWo9m1ZkGOPH7qY/EisHLlysiZT/KbyYvutiuu1aVQuanIepEVIYiCh/Kan6FLxtW1a1dLRBCSmtJEgHxeunSpHSeKkwI98z4OStm70ZrkxU5YBnI58cQTvbapZzpr7EfTv3//GonIf6Fk6gN9KF4EJDPjaErTXce01HVmBc1LJaI0eCGiCy64wBJN2iv7k5YU5TbE9bBlAX7fql0RIVDT6DiiCYsZeY5WdRy3Yf7ou2AElIh8sOF8cwaj/Qw6Ja+//nqsUx/8vle74kFg3rx5kZGBhDAtW+nK+0iwcnCgROQDHtIOym6uEHqdsG3ED7IglsMUISU1pYtA3NNdSWFQw1S6qS+umCsRpeUH4jfrj9hvKEgUh6A4xWPp0njHFKcFoT+LAAEam/GffBIZE/KaDdHijCdFeqYOAhFQIkqDBnX/Rx991K4rSnuV+glBMcUPYakpXQTmStcszswnM2YshNY9yguX10pEHmwhGArcq6++GnlaA5tqcfqDmtJFgK1cyO8wwxARElEcwgrzR9+FI6BE5MEHMRyJaPny5YHdspRzcctJr2pKF4H58+dHLnhFc6xt27aWiPSwhMLltRKRF9sahUYKnt9Atdcp79u3a++10ucSQqBK8q9Pnz4xiCg5UB1VHkoo6UUZVSUib7aIGI5ExAkeQQPVzjnvtYV0aJTm/YsvvohscEgZXTPGh3SMqHD5rESUhi0t3+BdB8dqKRcvXhy6NjbNa/1ZRAislgbn888/j0VEzJitlrPuhInUFAgBJaI0YBmU3GDDDdNs6/5EIho7dqxIRapLVBed4rYh75B8OYmFe5TR88yiEMr9vRKRD4YcLRw1S1JV1ciMHz9eCrIMLCWXI/n4pFbFigBkhC5RHMOYYRzCiuOXuvFHQInIB5cff/zRx7a2lZRj2UC/Q1K0V5G9Njgl8IuGpr1s9xs1fU9SOOOuScQ0fwkkuaijqETkkz20lLSYUYZlIGpKEwHyjgYnjqSDhBx3E7XSRKPhY617VqflAQWTfWqiDIPa6BupKU0Elkkex5F8KQ9t27YpzUSWUKxVIvLJLBa1RvW2IKJFixb5fK1WpYBAk6ZN13atIyLMcdPoHakpHAJKRGnY0iXjTLPojpkx33//fawuXFoQ+rMIEFi+bLlZsmRJrJjQNZPBwFhu1VF2CCgR+eA2atSoyEFMRHYIK2p2zcd7tSoCBFBGJe+Y/Ywy7M4YZ8wwyh99H4yAElEaNhS4MWPGRE7t4u7jjz+O3aqmBaM/GxgBdIgY47PqFyFxIZ/btGktXTOtKiEw5fxK0fVASKFjoJrjhHiOMmysxQpuNaWHgJstC8tnxgG5Wrduk9SsLr1klkyMlYhqsooC+e2335pDDz00FgnxGaI90pOaEkJA2hfWjHG4YlSnjDLB1bx588iuegkhUJRRrXgicoXtX/+6zWwoSzvYiyiu4du77rwzrnN1VwwICPswPrRKdMXQDULiCTJWIpKXKK6S12oKh0DFExHQ3n777eZ3vzu7Zswgeu2Ryw4K5+g3R5upU6ZqQXWglMidWTOIJoxgeAf9MFgdRlglkuSijmZFE5ElktGjzXnnnZf1qRyrVq025//xfLuAsqhzWiNXC4EVK4P3JHcOEZYgoOYBJ7o4d3rPHYGKJSJIiFmT888/3zDoHCygh4OMP0888bg54ogjVK8oHKqieQu5sLUHd8gmynCopprCIlCxCEMgd911l/nwww8twrmMAIhXZrRIVqeccnLktH9hs1N9j4WA5Ffnzp1tt4y8CzLunZ7gEYRQ/uwrk4ik8K1cudJcc801dtEjpJSrwY/nn3/B3HLLLbEWUuYann6fAwIiBaGmEUMYsoE0VokoB7DjfVqRRMQQJEcGTZs2LR5KMV1BRpdffrl1nQ9yixmsOssCAZZtRHW5ICq6b1W6BUgWCGf2SUUSERAxU5ZvssC/efPmmpEjR+bd78yyVV0HIUAecaFZHZX/yMnJcaS4slNQqGofhUDFERGFD63aTz/91BayKIAyfc+R1Oeee66OFWUKXD25R5mR/H/jjTdi5b+ViOia5d57r6cUlmYwFUdEZNM8OeEzzp5D2WYpJ8COGDEissXN1n/9LgcERLiBXGiI0IznOcyoRBSGTv7eVSQRsWo+7n7F2UBNi3vyySeb72UdmhX/tTXNBsaCfZOQfcbffvvtyImKJEmFa18XLJIV5nFFEhHHyLhFj4XK759//tmcI1003cWxUAhn5y8Nw8JFC83MmTOtB2ESEW4byar7MDfZxUK/Skeg8ohIChc6PxQuK62kI5Kn3wj8jz32mLn66qvNylUrCxpWnqJcId4k7BaxqG+Q/2FlwJURS0ThPbgKwa5wyaw4ImLT9FGjXikcojU+u97YX/7yF/Of/9xX8PA0gJgISMawxW8cKQc3EUNIMQNVZ1EIVBQR0foxSD1v3vzQljAKtDjvva3tqaeeZp577jkJM/6C2jhhqJvsEIg7UZHsvkNGKg5lh3T8ryqKiNbI1Ppjjz9uB6ozLVrJ1jHTr5IzNAyMH3TQQeaVV0YVnADjZ33lusx03E6JqPBlpaKIaNXqVVbzmWlb13Xyg9hLOnvssYedij/zjDOsmO4KJX7EMU4y4j5s2DDzuBAhptCD5XHiVoluyHfGh+Lmo3NXiVjVZ5rj1ab6jFGBwoIIJnzxhZkyZUokCeCWAjhktyHmqaeesgRy3fXXy2b5X5vf//739uRPiCSTQoqfVICjjz7aPP3001aHpUBJVW9DEHC9LPLDXUHOaWzYnTGTfA7yS+3DEagIIqLA0T269K9/jdU1ouCxOvv+B+6XjdPbWNJgBXZ1dbWdBZs6daq5U3Zm7Nu3ry2kmRRUyAjNaz0lNrxgFu5tUrPa+U/ZCDK849x7m7/BzoI+V/sMECh7IkoWtIT5QqQh1oDFNUgt6623nq/k0rVrV3PiiSeacePGmUsuucS0aNEio1ZzxozpBjIL7R/Gjai6ywgBSGXx4sWx86t169bWLQul1RQOgbInIqBjF8UrrrhCumSrpVCFg0lBPemkk8z2228fWlhxR2sJEbFuaauttkqRlm1BQ4LhCJt//OMfsm/yKktGzKaFtcwhXumrLBDgqOk4eFNWyOM4Z59lEQ39xINAE89zeT6KeD1hwgTz3//+15JQiCRuiWedddYxN998c6xzrBzhbLfddjIj9ooZPny46CiNihyDAugHHnjA7gzZs2dPw7XjjjuaHXbYoTzzoJhSJYINm+FjyL8wQpKJeztGJC6LKQVlGZfyJyIpbCxyjSp05C6Dk7fKxmZNmzQVQVwGrDMogB2FwEY++6w5SdaYQTJhBdy9YwbNDXr379/fdh8duZVlaSuGRAmnWPxpkRB5woy8d4PVLs/CnOu77BEo+64ZBejJJ56wCIVVckhoiy22ML868kjTuEljS1wZwSqFtknTpua+++4zf/rTnyyphYVHvLxT+N/OmGEJ02uXUfjqOBIBMOey43NRJCS+kX9NJU9dYxEZgDrIGoGyJyK2br3l1lsjAYKIbr7ppqxX5VNoHfFcdtll5o477rCD2JEBiwMqxxLR+B47dmwc5+omRwR69eoV2wfdrzo2VDk5LGsiooJ/9NFHFiDXGvqhBYGguLjTzjvnfKKnI6Rfn3CCmTNnjvnDH/5gCcqRlF/42NHq0lWjoSauagqHwJdffpmaWIgKhRlRNYVHoGyJiIrN4sbPPvssJakEwbnnnnuae++9N+h1VvYQDwfzXXjhhTIDNygWudxzzz3ml7882Dzy8MNZhakfxUOgWYxzyhrLPtU0CHHcxgtVXYUhUHZE5KQJiOCcc86xEpGzSweCwsbqeCSR7t27RxJW+vdhv9mYHf+ZoXnppZfN66+/bnr06BH2iVVyfOaZZ8xxxx8vJ4I8bytCUNxDPdKXoQigH+bGfYIkVd6Tf2yyr6bwCJQdEVGwKETXXXeduf/+/4TOe/3zn/80l156acELG4V5yJAh9hy1OFmK1jUHNs6fPz+v5Bgn7Epw853snBlEQLXTrxJRbTwK96vsiAhAKluZAAAft0lEQVQJYsGCBVbSQZExbLQFnSFn4hVM5zq7+1577WVOP/30yPEJ0rBkyRI7A0dIbFuxYkX0EcnZxapyviKPwRZ1jqRJzqIFISBOdSlOEDh5ti87IkIaoqsVZ8+Z0aPfyDOc4d4xM8eOjYMHDzZNROyPMowvDR061Gw8YGM5RfYUcR5Gq1G+6XuHABJnkpScjf8dTXzG+dQUHoGyIyIKGJrUrvXzgxBCYFqW46brc/EpcWrVspUdLxojYW+66aaBs3S03EhBjBVNl7VpDz30kAx8X2Rmz56dGvjGjZrMEXBERH5QFoJNo1gNWvD3+iYuAmG5ENePonGHNDRfxO5///vfdpwoKGK44zr77HMsIQW5K4h9zfQ8ypMQYe/evSODgXDYPYD1cmhgc1wR8aciqckcgTWCJdKlKwdBPgBvOFEFfan2mSJQNkTErntXXnmlqe7Xz46vBAHRRLSmb7jhBnvS529/+9sGqcyuJW7RvIXZbbfdgqJayx4yomIsXLjQbLnllmb8+PG13uuP+AisESxZeBxlOMGjffv2Uc70fR4QKHkictLCeeedZy6++GIRpZf4wkLlRzltzJgPzZlnnmk6duzYICTkjdwaWXV/+OGH21Y3TstLT4xWfJGQEbsD3Ct6R3QztIvmRTXOczQJ4QtYM4WvpvAIlDwRQTB0W9555x1bIWnp/DosVFa2dGC7jmIpXMR97733NmfINrTEi99xDNUIAvq17InEIDbT/BglJAtD5B8IPQ5WNA5x8yQyUHUQikDJExGpW75suUg7zVMJ9WvvqOMbbrhhyk0xPFDIGTS/Sda4ffDBB+YY2Ua2KiYZ0VpjWGS76667mkcffTQ5sOqX+GJIbBHFARKKSzBMGKgpPAIlTUQUKNZz7b3P3ub99z8IbeVat25jbo2x+LXwkNcNgXQgpSHhNI2x/KC2DwkzaeJEc6TsGoBawAMPPmBYyZ8ySkwpKNwDJB6vK5ywyq7x5FTnu96zQaDkieiRRx4REno/kIQQMFq1amUlBwZ5i9G41nnIkCEyhjXG7LPPPqZx6LTy2lTYbkbNz48//tgce+yxdsD+V0f+ynz99de22xqnG7LWx/J/cniAu8PeL9W4Y1tZceT3Wu3yiEBJExE4QEJhhYnd9Z568klzyCGH5BG2wnhFOjbbbDO7t/Yee/wio/JPpXEVjDEz9mDacIMNzOVXXG5PD3HvChPz8vW1Xbu25Zu4IkpZyRIR4jUr69GiDjNUwJ9+/jnMSVG9g4wYN3rp5ZdEMto3gmT9o06aWd4Ck/35z3+22tnsRABmbmzJ/8vyt3WyTRQOjriXLFmaIvjyR6fhUliyRARkF110UXINVs3ArR+MVGz2oC4lQyUh3iNGjDBD998/66hTmfCHfbQPPPBAw6bx8jNlXGVLWVTAA0NmzWVio1hmTisA8lhJLEkiogK9/fbb5sUXX7StVdB4LJWwceMqe0BiLDSKxJEbSGWb0odk038Wy2ZrHNn873//k9NJThQiklNuBT8udpGsrq42t912W7bel+R3HD0eJRGRMMqPmvpBoCSJiDGQM884M3JbV46B6dmzl1VgdBWyfmDNTyhUBA545DDHPn36xJ7a9wudOsVeR+ynjb+TJk0yv/vd78yM6dPNpbIVCjsWVIKhHCxbtkxJpsgyu+SIiILEZmaffvZpZN+dlm/jjTfO+ADEYsojSIP1aOgasdlatkZgEykgYW688UZzwQUXWM1sdGRWSzeQbTHYo6cUyTpTPNDTQuKkkQqTeHjHeXN04cLcZRq+uvdHIPuS7e9fYW2lMrFQ9JprrrGVJqyASDmyFZetNMLcFTbC+fP9gAMOsOem5eoj0gBr8n72DOBDQHPnzs3V6xL7Prk3UTj5Rq3OL7EkF3F0S4OIbGu+xkyZOsUq7bmtO8IKEWMhjK3stNNOMoFfHn19ulX5GGT1w43xqIow0kKxD7UbIwpqpJL2yV0P/PCqCKzqMZFFT0QUgtWyQRXKeQMHDjSsso9jKGiXynHQtkCVBw/Zbubhhx1WEAmvWdNmcWAtCzeQeRS5UH5wE0RUZQFEESWiqInIFQT0hVgU6roTUYWIgsbg7mabb15EUOcWFSoE14WisuBMPisJC4IrwVB2GBuLws7hHVXWKgGz+khjURMRADz99NN2YHWZ7Nscp1BQgGjN2BakdevWkQWuPkDOZxhsjLa/6BZFVaRMwkSBsnWb1pl8UtJuSW+cslTSiSyxyBctEVFQRo4caY466ijbHWMzqziFBzdcBx10UIllRbzo0oXiDDbOZM+HgdDYm6lz58758K7o/aCXnpw1Cy/6SYlItwGprwwNz436ikVaOEyb/vDDD+bUU0+1Oh9pr0N/UsjoZnSRipVPqSE00Pp8KTUJ0uB4asgoWWGyHwTje9akISVUhBGo0M1CFw0T1LgF2VcERg2QyCIlImPOOussM2vWrIzJhIq1yy67mBZlfvoCXbT/yaGNnTp1SpJRROEJI2XG0vIxGxcRhaJ4LcKyHWt02utBkXJ46X5EQQjl174oiYgZsidlxTwmm5aJFezlbqgo2++wg13qwsZomLBN1ah4fOMqmBcfiBvj987rrlyeXZniHpXmfHWBywW7QqWjKIkIzemVK7PbGY/C1U820M++s1IoqAvj7wbrry9HWr9k/nHZZWZdOdJ6LeEkw+P3dtttZ1544QXz8ssvm+OOO04qX+24bC4SUVSFrP1Faf9y59mTZkdKfinitA/KkprCI1B0RISe0LPPPmuXI/glP6zg4J73PXqsWzFHEVaJqgKtNss2Jk+ebGcZTzrpJCGWKuluVdlxtg9k98o99tjD7L777vbYa7YXgaDojm200UZmoyLbQtcv3/NpR7qZWQ0iX2ffWMbNwFRN4REoqhFKNKYnfDHBLJXjlrM1VLBNNtk0289L9jsqD8cTsRSE6zBRfKQScWQS4qEbA4Kob7nlFrOBDFDzfN1111lN45JNeBYRd90tyCjM8N4Naoe503e5I1BURMTMzahXRxmm6rMxVEYq3Lrdu8t4SdEJe9kkKbNvPF0utpvlSjdgVF1dbZ577jlbyThFBKmqUgzky3IWZmajDFjpYHUUSvl5X1RERCGZMmVKTinbb7/9TEvZo7piBomyQIsKBk60+EiQlWaaN4+3nAWc3FFNlYZRfae3qEohRNRDBlyzNUhUHLIYJXJn63+5fVeJJMTMYnPpwtJSQTRcQYZy1K5du6DXap9HBIpKIkIM5tz6bAwFasiQIWbbbbfN5nP9poIQaBK3KyoNI3s1qSk8AkUlETEwiChMSx3WUqXDgluODOJMezWKQBQCzdBIj3LE+wiJKY4X6iYeAkVFRCxSRZmR9WWZLDlggJrTKjbZZJN4qVZXFY1As2bx9l6iDHLggJrCI1BURERyu3XrZu6//35zxRVXxCIjWraDDz7Y/PGPfyw8WhpC6SMgUk5T9l6Se9B2sYxVciFpV+I4WkNkctERESBQAM4797zUdhfyM9RwgivdOgqPGkUgCoFmNbtRUlzCJjZWrlyp0/dRYObpfZOTTv5NnrzKvzc//rTQVPfbINLju++5T47decRuMp/LrFtkQCXs4K477yjh2Ocz6qJHJFvFRhkaQxo29vhWU3gEilIioqWiEPz000+xEaDAfPXVV+abb76J/Y06rEAEpGxF7c8NCTmzNOaGfM693rNDoEiJKGEmTJhgFi5clEGqkoWHvYggMjWKgC8CQjIMQod246UA8R5CWrhwobSK4pOWKV8482VZVHpELlETJ04wc+bMcT8j7xSY9u3b264Zuw2qUQTCEGCQOsxYzqkho2+//VbGkVbLMhhRKYk36R/mtb4LQKD4iEhKAcTC5d9q0aI1tocmojvUoUMHuyNjmzZt5ZuAVKq1IlCDAGWqqmrt2jqKTJCwg1skouWiaBtnXElBzh6BoiMiCsWAARubrl272kLAinxIiX49q6Zbys6LLVq0sFOwSjzZZ3ylfkl5evvtt9cmn0IkhBNkmI296667zGmnnWbLIGVRTf4RKDoicvnMFqhcXkN5ceXGufO+12dFwA8BJ1kvlwkNNpDjpNs4hOK+O+/cc81TTz1l7rzzTrO+bESHifO9X1zUzh+Bohys9o9qkoR4pyQUhFBl2zviQIrhWiV6QBikoPnz5puDDznEXH755SmdM+c+CjXkpdGjR9tN5M4//3yzRPbLQv8o7vdR/ut72eZYQVAE0hGgkrnKzD0hvzM1+MEFCXDhTyErL/47KQVVjnfffdfcettthv28OfVkXdm188UXX0wmQ0RrSMRdUWnzurv22mvNOuusY4455hgzffr01KcurS7dqRf6EAuBouuaxYq1OsorAlQ0KjF3Wvtx48ZZHa4FcqTTwkWL7KkX6NNwsUMCGsdUOAx39oBm4oD3PDOOx8UWGkwm0MVeX/Z+biLjfOutt97apTsSHuItYeMPdxcP7nYU2TMk4+JpA64Z1hE6sT//85//2LGcSZMm2fhCfizPYAO0NWvEDWGJcfG2PzL8Q/gY0v/IIw+bxx9/3JIcpxAfItJW37597bHgXbp0MZw/5+LGbJt75nt+2wk4vPOkj3fO2LTKy4SRRmGVpEHSwZpKt9Omc1cudyWicsnJLNJBpRw+fLj54osv7K4H7BeONAGhuDVWjiTw3pFEelCugtZ+n5ydwh9Igf2zqXWOtFCzQOcLAmOxszu9dvHixYaKTBwwTkGVyr9ISJGLmSwIEzccQz5jxgz72xsPiAcpiYqbSKyyfuXzD5wEfrNnz7aS1iuvvGy5Dh0lJlaYUGnXtp3p0rWLDZaJFt6RDuJPvHCHH5C2e8YejCBwJDlwgrx7rLuurDLoZzfz5z0mmd4km1nitral+UeJqDTzLedYU4jZcP+xxx6zfvHbVWQscpEcXOTWrFlLAM4/KiJkM3fuXOfM3jllJN3UqVzEMd1RxG9IsBAGrCA6Z1atSj5jB6FDmOxlNGVq9juOuvQ7gufeTsi7nwyY77D99mbHnXYynG/HKSwQHXFCwHIYeb+zfiU5y0U5ld/2Xcq2YR4anXjSKS7eDRMDDbVeEPCuNaPAojDaq1cvK63U6sLUS2w0kEwQcITivklKq45VEiJ9tTQ7yBl3kNI222xjevbsaSUsJCfGs3DP6bZIXkifkJbzk3uSiJx/ScnXhVVf93CJyEuveYgRYid93QR99pimRYvmVqEsk29ieu3vLCTNTZo2sZvyF3JD9Www8k9IsC3SCUc2OWnB27IHf6VvGgoBr6S6Ng7Jgso7uqmvy6m/zOyRl0licV235Be2XEm+W3KSbh+n+2688cZ2JrBPnz52+x26gHQH6UImyW5taIV+skS06aabmP3329dMlIG+5557QY6jGWYGD97VLJK+7CWX/q1WHDiG5hd77G769Olt2XaqLDL98ssvzWuv/c/212s5lh+w8ND997NbuHbu3MmsEqC+k6Okv5C1ZE89PUKmWOuKzvSrDzvkYDv4BzCIujNnzjKvvvaaee+999ODkC1DzrZ97vsfeMh8//33dd6ffPJJZp0O7c1jjz9hvvlmmn0fN82NZDnA/vvuK/EfaPvqZOhPP/1sPhjzgXn++Rd901wfGNVJZAYWFLK7RCcG4wotz/4FnjdqigkB1831xom8o2ERAUfyMfnGm5+8Y2kLulSMa80Wifg1qU+uEXLlgN0rjjjiCHP88cfbLl99EZIlonayTmvAgAF2hmT48CPN7kOG2JQsln6u1+wnZHXIwb+0bEnCYOL+ckAf14477mhuuun/hDBmpj5Bmrn4ogtN9+7drN13331v1+wgOvbu3dtsIox87XU32P60+2jrrbcyJ590oh3sA6Rvv51pWbpfv2oZqDvJDBq0nZzLdVsKQL4j7hAEpOdnOA21S5fOVix17+OkuVXrVub0U0+VlmOA/Yz0Llu2XAi4g9lrzz3NFtKq/P3vl5mlkrnO1AdGLqxs7xTkr2oODvQr1Nn6q981PAJJEvLvcdjZQ4miJSjHVjVRdqRF/b3xxhvN9ddfb0455RRz1VVX2XWcjqgKlcJaXbMB0sdkJuPDDz80H40dZ+bOXrvwdOA2W5vDDj3ESif/ffgR884771oyYFT/6OFHma222tJc8Kfzzfl/usAsWZw8IHHY0KGWhKZNm26ul8Qt/FlWMovp1KmjOeP000Sq6mOlpUceTQ6YsnD1FJFe6MO++uprIsE8LrMMwvLC5JvKNrB8s+UWW5h9991HJLfn84JJWJp/eeCBloQgoFtuvc1MEsmPLiIi7Lnn/M6Ks788+CDzX9kLCVMfGOUl0eKJawnz5Z/6Uz4IQEpIQvfee6/VJn/00UftLqg09oUyzKmmDCT0wosvmdv+dYfhmGK6XZjGssj08MMPt88PP/KoefPNt1IF+QfRNbn1tn9ZyQWJZPtBg6w7/tBFwYx+680UCfF7/vwfzDPPjhRJaLFIRr2wsuaXBx1gSeizzz6Xjc4etiTECyo/dnffc491R9exffv8HPMSlGa6h0OG7GbDu+vue8zEiZNSY1u0Gi++9LJ9t/lmm9l7fWFkA8vxD4WMrrVrBXP0Tj8vQwQoG8xwMl6EXlmhy0otImIQ9plnnq0DK10oujZMu45+880672ldiSzGS0QrViy3drvsvLNpL2M0XjNu3Cfm7HPONVdfc13KenuZksSMEmnIz4z/9DMLSFMBp3fvPn5OMrYLSvPArbe23T2kIeKabt566y0ho5fMWEk3JFRfGKXHI5vfFKo/ieRaaHE7m7jpNw2PgCMdxpvoutfHLpW1umYM9PrNCHWXDe0xi6XLBan4mRYtObTOpMaDeH7jjdH2ZI3qvn3NtVdfZRXnvpgw0Q5UW/V4T1eWbhldMsxk2WnRzyyX8ZnZ0l1kzKl7t67m00/9XGVmF5TmLrL6H8MYlZ9hrOixx55IvaoPjFKB5fgAAW0n57/R2jHW5wpejt7W+twNmkaRHWFHuZEIMqoeK57pfoWlzbn1c8M7b9y8z7US6vnh3Hj9c2E4Z953zi7Xe3oY+JdrOMm0JImI8V+/MHKNt/f7WkS0QkQxP9OtZrC5q3RXfn3C8X5OUnYtPAPGH3081tz8f7eYQ2UGjHGVTTfd1F44ZuYJqWLk88+bFctXmK7dkhqoVHDv4G/K45oHlMQgIogrrmFTqyATlGbSipkhG2PFMfWBUZx4xHFDoUIp7mWR6E75zW/MFDnCaQ2VPUsTVEjRpmadGj7jJlm4k3ortLR0EZ2dX9DyiSjoyfKPmrhlWrnwH2mduxuUd3EN80uChff4a6egqlA7kfi6b11c+e3s1qYjSaxuYHjtexbJ1sbB+ZPr3S8ta8PNPF9t0iVS7NuEcDBs6DBRW3G2ucbW//taROTvxKSkpFky7f7kU08HObP26eX5k0/GGy6OCWLKnBmuTWQWijGeoUP3t7NnN9x4k0zjJzVT2fSM/E+ph6aF1rNXT2vD2FQcQ7epoyh1ZWrcQs+VK1fE+tRJkoXEKFZEYjqioO666+DkjCWFLD3jYviDH1wUUkcW3s+oIKwvc+u9rFshBZZ1sKRj+vRpIpEl852KjnQGcSSnmqvsrCy4kheoffCOC7fucvplq2UXRcJzlZL3PLsBVsjIGexd3HFXx9h04d4yhw0L/Rv8YikGSoHsl0UZxN/GcrFxmn3fpKmdXHHhcic8ps7lZt275RyE7dJDHFyaiBvpdr+9d4vPasFJcMMNy0UYyyEefOeMF3Nnx3uHj7Pzuzt/8JM1dM2aN6vlt983udrFIqLZ38+24bAGiEFjEp6psboLor/w2muv2wwbNmyoOVAGnTfffDM7/jR7TjIMuguss/lxQd2D7Zht61AjCc31HAWcAndtPqSi11Xi7IBNWcZ4+F7SjATXOW1PJPdpc1FN2HeffezPkSOfM/WB0dy5+T3+mNnI34hE9N5770k3+g2bryksJWUON+xc2+DsqFWNpKCisYu0e9ZZZ5nq6mq7Tgw73HHRolJeqDT4wSmrlCMqs/W3pnJQ6L1hu3cALD7ZxskR0WoIq6YSQ1qYlRCWxGml+02YImkvl3FK1qNxEAOkwDgnhyaOGTPG3HffffbbNUJu1tTEmXijpcz09b6iQwbRou7RQuJO/Js3a27VUPjG4QFZuGdrXxNnlybvO2dnw5Q/7rcEI6ZGcuSpBhPS7xa3OH9IN7iyvcmSJYvNDwsW2GUzM2RHgMki4ZLG7777zuoMsSaPdIMb3y0TvTxHgBAsQx4oGtvQJRLkBY0FY7b33H13rXRZRwX4E4uIvq3RDYLJ0akZP77u4MxRR/7K7LnnL+y0PrNMqJZfc/WVtgCefe55tlC4+APCszJrtrvMSjFr1UH0cqhkCwRMvttBZt7crJT7hjsruDEoOE6dMtU+82e+tEzdpIXqLpfXnncbiY5TNuabadPsZ5vJrBikQ2Z5ze677WaJlDGkESOeMfWFkTcOuT5T4C699FJb0KiYkBInoVAx6I5QAVkGAt7cWUUPiUDQA2UpwfoyK2qJOlmDahVY/HCVxhtPr717n37HvbPzfguRWElDKk+mxhsuz5AMG6T9+tcnmJdkBpQKiirKwIEDzUUXXWR2knVc3jh4v3dhY+fswdIa1xMSUnHvnHvu2HkNYXjD4Z0j3pQ7CKr2Z6ZJ4yYWC9dDSLlNe3BxcHf3GuIkzU2bNrGz19gjRdEdg5y46tPEIqKvv55iPv/8c1sA99h9d3vCBvo9zmy00YbGTXW/9VZyG05IBVZGutlRmPWN0bVn2yjQtJwA5AaEGS869uijzT777G0+FcnLqxzZRlrQAw48wAb5+v/eMIuE4Z2ZJtrSENGOO+5g3v9gjBVpeYeW6K+OSKodOLdx7++L+gJSG/4ecdhh5v4HH0wVBlpz4ohxs4X1hRFhHn74YbZ1njhporTsH2GVtXGVYFsZvB4rY3q0vNaupuCnfksIrjC7e1igzt90N0H26e7y/dsbrnumbD4t2v1UwKVLlpqWIgXwzi997htvvPzsEISc8XvvZ+fcp+4+ftT5TtxYwkp95P/gvnN35wridGSDMNDQJhYREckHH3rY/OXPF9mu1F/+fLH5RKQiVhijlLidLH8goa+MGmWV/lyinhZJ4YTjjzPHHnuM2aj/RnKu/RQrEvYX4mLFMN8g+VAIMKPfeNMM3mUX6yfKkWPGfGhmyrgU/XG0mFEhsNsuyCCr14z75BOrcU1Lfeklf7bh9Fivh+lXXW378XyDJncmBqntv6LLdOYZp1uS7S16Nyxladq0mdlWWk322oFAR3oUK+sDI9Kw8847mbZC4qtkrCBXInKYkBd1KqAr7JCST+Vw35bq3VXORo2kKyKNizPO3v3We+ERiE1EVOa/XPpXc8pJJ5kNN9zAShsuenPmzDVPjxgh0sgHzsre35RZMaSeA0SyYNsCLmcQC9HD8Q5+Iy5efsVVZvhRv5K1boPtejfnnvvYsWNl86t76syqIb20bdvGHC6SC+MVXJgvv/zK3Hvff8xxxx5tf2f651PRW7pC4nPqqb+xpAaxYaiw773/vl275h0vqw+MMk1DJu5rVUAP8TgSqvU+E4/VbXEiIA0MEi91kYvGl+EXxmmRmOozvzPfBkQKKBJKX5GEWsrmT4zPTBDdIBIRZNq2a2s1qOmONZF+PsQ1fcYM3wFp54c7p4yFsgwET/92hizCrb32zbl1d8YPIKEOojyJvhHEkC/D4tteMmPH8pXvRN+KAdBAU08YBYbv88K7DYjPa7WqQASYjeSoJAayERggIBR4aWhbtWwlM5615RTsMYUgqMyJqAIzrBySrERUDrmY3zQgzbOwnUb/J2lYaWTRh8MewYKZM0s6wj8rV620UhO/GVtKDc7nKUo1Q/158k29UQQUgZJCAHWHWTLNz+QSU/hTZBwXCQnpJ3mJrpPoaKEC0FwIiOUeVrdL3Dr9JispISzR1Ut95773v3tB4pvaspf3rT4rAopA2SPAmBDSTft27UUdoMosby06RjU6UZAOipMQEXpYzBZbfTCRipCYIBDIiCERp6TpxpuwYzaSiQCM685hzzPuMbgXh0pEFg39owhUGAKORCASVh7QNatq3MxqiLeSsSK0xpvLGDB6fbhB1YE7xAEZMd7ryARSwj0kw1gqXTvGm9A/4xkCg+xQsMQ/wmYsCvf4Z99XGP6aXEVAERAE0EGCQJB66FWtENKAYOz4kBAOenqQxjRR7P34o48NxzQhyeCGE0ogk/fk7Lj3ZfYYwoGAfhapCTNBdl8dJzPczh1nzKFTuK6cRDJLlKPZLojxKJan4AZS0q6ZhU7/KAKVhQDT9pAJxINhLV9juSAb7BmQhqR436dvn9SaNpaJsGwHaWhQjToO33C59YaQi5We5FvIBgJC5xCp6mf5vUzGm+i2oRSN5ATZKRFVVvnT1CoCKQRYwuNmv5BqWHNHN8lJPpAN3SfccOeSl1aSmj9/vl35AJE4InJbNTPbBhHhlvcsCuYZgxsO7WwvpARJMQjOrJ0SUSpb9EERqBwEIA/WEzqiYXcMpB+We3DmHF0wum7o5SEZ8R636AFCQij3NpZ1aWtkILuNfMOsG+4xzk/6fFUyWN1IdsDAHQYiwi1dOSSnqVOnWr1EJSILj/5RBCoPAaQVJCC6RpACv2eLsi6EgtIyg8vWXhbYosBrJSMkHLnYpwvJBzJj/AcDAbFfmFvDtuDHpEpAyxYtbXeMdxARJLhw4c/ivol1i3slosorf5piRcAiAHFARNzpIjGDxcaGkAV2EI2dwhdiShKSTNMLafAO6cl153AHmTC2xAWhYXCDW6Qo3vPbzby1FM1tJC8kMHYA+H/oOgfF7mf2kgAAAABJRU5ErkJggg==;" vertex="1" parent="1">
                    <mxGeometry x="610" y="710" width="200.63" height="220" as="geometry"/>
                </mxCell>
            </root>
        </mxGraphModel>
    </diagram>
</mxfile>